<svg width="1512" height="3626" viewBox="0 0 1512 3626" fill="none" xmlns="http://www.w3.org/2000/svg">
<g clip-path="url(#clip0_21_276)">
<rect width="1512" height="3626" fill="white"/>
<rect width="1512" height="66" fill="#D9D9D9"/>
<rect y="66" width="1512" height="633" fill="#E42D2D"/>
<rect y="1166" width="1512" height="633" fill="#EBECF0"/>
<rect x="707" y="1166" width="805" height="633" fill="#E42D2D"/>
<rect x="398" y="244" width="716" height="157" fill="#2D4AE4"/>
<rect x="80" y="772" width="272" height="290" fill="#2D4AE4"/>
<rect x="756" y="772" width="272" height="290" fill="#2D4AE4"/>
<rect x="80" y="772" width="272" height="290" fill="#2D4AE4"/>
<rect x="756" y="772" width="272" height="290" fill="#2D4AE4"/>
<rect x="435" y="772" width="272" height="290" fill="#2D4AE4"/>
<rect x="1111" y="772" width="272" height="290" fill="#2D4AE4"/>
<rect x="80" y="1976" width="272" height="290" fill="#2D4AE4"/>
<rect x="80" y="1976" width="272" height="290" fill="#2D4AE4"/>
<rect x="435" y="2560" width="272" height="290" fill="#2D4AE4"/>
<rect x="80" y="2410" width="272" height="407" fill="#2D4AE4"/>
<rect y="3219" width="1512" height="407" fill="#2D4AE4"/>
<rect x="1111" y="2440" width="272" height="407" fill="#2D4AE4"/>
<rect x="756" y="1976" width="272" height="201" fill="#2D4AE4"/>
<rect x="435" y="1976" width="272" height="464" fill="#2D4AE4"/>
<rect x="756" y="2281" width="272" height="464" fill="#2D4AE4"/>
<rect x="1111" y="1976" width="272" height="340" fill="#2D4AE4"/>
<rect x="637" y="448" width="237" height="46" fill="#2D4AE4"/>
<rect x="588" y="3027" width="237" height="46" fill="#2D4AE4"/>
</g>
<defs>
<clipPath id="clip0_21_276">
<rect width="1512" height="3626" fill="white"/>
</clipPath>
</defs>
</svg>
