<svg width="1512" height="5561" viewBox="0 0 1512 5561" fill="none" xmlns="http://www.w3.org/2000/svg">
<g clip-path="url(#clip0_37_271)">
<rect width="1512" height="5561" fill="white"/>
<rect width="1512" height="66" fill="#D9D9D9"/>
<rect y="66" width="1512" height="633" fill="#181818"/>
<rect y="4160" width="1512" height="371" fill="#181818"/>
<rect x="157" y="875" width="1198" height="521" fill="#EBECF0"/>
<rect x="717" y="875" width="638" height="521" fill="#181818"/>
<rect x="80" y="226" width="476" height="107" fill="#2D4AE4"/>
<rect x="121" y="383" width="461" height="95" fill="#D9D9D9"/>
<rect x="756" y="933" width="573" height="203" fill="#D9D9D9"/>
<rect x="157" y="749" width="364" height="70" fill="#D9D9D9"/>
<rect x="1173" y="749" width="182" height="70" fill="#D9D9D9"/>
<rect x="157" y="2594" width="364" height="70" fill="#D9D9D9"/>
<rect x="1173" y="2594" width="182" height="70" fill="#D9D9D9"/>
<rect x="756" y="1158" width="295" height="36" fill="#D9D9D9"/>
<rect x="157" y="1418" width="1198" height="521" fill="#EBECF0"/>
<rect x="157" y="1977" width="1198" height="521" fill="#EBECF0"/>
<rect x="717" y="1418" width="638" height="521" fill="#181818"/>
<rect x="717" y="1977" width="638" height="521" fill="#181818"/>
<rect x="756" y="1476" width="573" height="203" fill="#D9D9D9"/>
<rect x="756" y="2035" width="573" height="203" fill="#D9D9D9"/>
<rect x="756" y="1701" width="295" height="36" fill="#D9D9D9"/>
<rect x="756" y="2260" width="295" height="36" fill="#D9D9D9"/>
<rect x="157" y="2766" width="364" height="286" fill="#EBECF0"/>
<rect x="157" y="3079" width="326" height="52" fill="#D9D9D9"/>
<rect x="157" y="3158" width="213" height="26" fill="#D9D9D9"/>
<rect x="574" y="2766" width="364" height="286" fill="#EBECF0"/>
<rect x="574" y="3079" width="326" height="52" fill="#D9D9D9"/>
<rect x="574" y="3158" width="213" height="26" fill="#D9D9D9"/>
<rect x="991" y="2766" width="364" height="286" fill="#EBECF0"/>
<rect x="991" y="3079" width="326" height="52" fill="#D9D9D9"/>
<rect x="991" y="3158" width="213" height="26" fill="#D9D9D9"/>
<rect y="66" width="1512" height="45" fill="#FFD600"/>
<rect x="47" y="4224" width="618" height="45" fill="#FFD600"/>
<rect x="756" y="4274" width="618" height="113" fill="#FFD600"/>
<rect x="47" y="4301" width="466" height="59" fill="#D9D9D9"/>
<rect x="767" y="4282" width="488" height="97" fill="#181818"/>
<rect x="1274" y="4312" width="89" height="37" fill="#181818"/>
<rect x="159" y="3244" width="1170" height="11" fill="#1B1C1D"/>
<rect x="159" y="3397" width="364" height="70" fill="#D9D9D9"/>
<rect x="119" y="4591" width="364" height="35" fill="#D9D9D9"/>
<rect x="119" y="4658" width="364" height="35" fill="#D9D9D9"/>
<rect x="121" y="4734" width="364" height="35" fill="#D9D9D9"/>
<rect x="121" y="4801" width="364" height="35" fill="#D9D9D9"/>
<rect x="121" y="4877" width="364" height="35" fill="#D9D9D9"/>
<rect x="121" y="4944" width="364" height="35" fill="#D9D9D9"/>
<rect x="556" y="4591" width="364" height="35" fill="#D9D9D9"/>
<rect x="556" y="4658" width="364" height="35" fill="#D9D9D9"/>
<rect x="558" y="4734" width="364" height="35" fill="#D9D9D9"/>
<rect x="558" y="4801" width="364" height="35" fill="#D9D9D9"/>
<rect x="558" y="4877" width="364" height="35" fill="#D9D9D9"/>
<rect x="558" y="4944" width="364" height="35" fill="#D9D9D9"/>
<rect x="1011" y="4591" width="364" height="35" fill="#D9D9D9"/>
<rect x="1011" y="4658" width="364" height="35" fill="#D9D9D9"/>
<rect x="1013" y="4734" width="364" height="35" fill="#D9D9D9"/>
<rect x="1013" y="4801" width="364" height="35" fill="#D9D9D9"/>
<rect x="1013" y="4877" width="364" height="35" fill="#D9D9D9"/>
<rect x="1013" y="4944" width="364" height="35" fill="#D9D9D9"/>
<rect x="1175" y="3397" width="182" height="70" fill="#D9D9D9"/>
<rect x="159" y="3569" width="364" height="286" fill="#EBECF0"/>
<rect x="159" y="3882" width="326" height="52" fill="#D9D9D9"/>
<rect x="159" y="3961" width="213" height="26" fill="#D9D9D9"/>
<rect x="576" y="3569" width="364" height="286" fill="#EBECF0"/>
<rect x="576" y="3882" width="326" height="52" fill="#D9D9D9"/>
<rect x="576" y="3961" width="213" height="26" fill="#D9D9D9"/>
<rect x="993" y="3569" width="364" height="286" fill="#EBECF0"/>
<rect x="993" y="3882" width="326" height="52" fill="#D9D9D9"/>
<rect x="993" y="3961" width="213" height="26" fill="#D9D9D9"/>
<rect x="161" y="4047" width="1170" height="11" fill="#1B1C1D"/>
<rect x="11" y="5209" width="1512" height="352" fill="#1B1C1D"/>
<rect x="447" y="5362" width="618" height="45" fill="#FFD600"/>
</g>
<defs>
<clipPath id="clip0_37_271">
<rect width="1512" height="5561" fill="white"/>
</clipPath>
</defs>
</svg>
